<?xml version="1.0" encoding="UTF-8"?>
<svg xmlns="http://www.w3.org/2000/svg" xmlns:xlink="http://www.w3.org/1999/xlink" viewBox="0 0 23 23" width="23px" height="23px">
<g id="surface263392048">
<path style=" stroke:none;fill-rule:nonzero;fill:rgb(76.862746%,76.862746%,76.862746%);fill-opacity:1;" d="M 11.5 23 C 5.148438 23 0 17.851562 0 11.5 C 0 5.148438 5.148438 0 11.5 0 C 17.851562 0 23 5.148438 23 11.5 C 23 17.851562 17.851562 23 11.5 23 Z M 11.5 23 "/>
<path style=" stroke:none;fill-rule:nonzero;fill:rgb(100%,100%,100%);fill-opacity:1;" d="M 17.96875 6.46875 C 17.96875 6.46875 15.8125 5.75 11.5 5.75 C 7.1875 5.75 5.03125 6.46875 5.03125 6.46875 C 5.03125 6.46875 4.3125 8.625 4.3125 11.5 C 4.3125 14.375 5.03125 16.53125 5.03125 16.53125 C 5.03125 16.53125 7.1875 17.25 11.5 17.25 C 15.8125 17.25 17.96875 16.53125 17.96875 16.53125 C 17.96875 16.53125 18.6875 14.375 18.6875 11.5 C 18.6875 8.625 17.96875 6.46875 17.96875 6.46875 Z M 10.0625 13.988281 L 10.0625 9.011719 L 14.375 11.5 Z M 10.0625 13.988281 "/>
</g>
</svg>
