<?xml version="1.0" encoding="UTF-8"?>
<svg xmlns="http://www.w3.org/2000/svg" xmlns:xlink="http://www.w3.org/1999/xlink" viewBox="0 0 24 24" width="24px" height="24px">
<g id="surface263868702">
<path style=" stroke:none;fill-rule:nonzero;fill:rgb(76.862746%,76.862746%,76.862746%);fill-opacity:1;" d="M 12 24 C 5.371094 24 0 18.628906 0 12 C 0 5.371094 5.371094 0 12 0 C 18.628906 0 24 5.371094 24 12 C 24 18.628906 18.628906 24 12 24 Z M 12 24 "/>
<path style=" stroke:none;fill-rule:nonzero;fill:rgb(100%,100%,100%);fill-opacity:1;" d="M 15.566406 9.601562 L 13.644531 9.601562 L 13.644531 8 C 13.644531 7.175781 13.710938 6.65625 14.894531 6.65625 L 15.589844 6.65625 C 16.03125 6.65625 16.386719 6.296875 16.386719 5.855469 L 16.386719 4.851562 C 16.386719 4.433594 16.066406 4.074219 15.648438 4.046875 C 15.167969 4.015625 14.683594 4 14.199219 4 C 12.027344 4 10.441406 5.324219 10.441406 7.757812 L 10.441406 9.601562 L 8.84375 9.601562 C 8.402344 9.601562 8.042969 9.957031 8.042969 10.398438 L 8.042969 12 C 8.042969 12.441406 8.402344 12.800781 8.84375 12.800781 L 10.441406 12.800781 L 10.441406 19.199219 C 10.441406 19.640625 10.800781 20 11.242188 20 L 12.84375 20 C 13.285156 20 13.644531 19.640625 13.644531 19.199219 L 13.644531 12.796875 L 15.382812 12.796875 C 15.789062 12.796875 16.128906 12.492188 16.175781 12.089844 L 16.359375 10.492188 C 16.414062 10.015625 16.042969 9.601562 15.566406 9.601562 Z M 15.566406 9.601562 "/>
</g>
</svg>
