<?xml version="1.0" encoding="UTF-8"?>
<svg xmlns="http://www.w3.org/2000/svg" xmlns:xlink="http://www.w3.org/1999/xlink" viewBox="0 0 26 26" width="23px" height="23px">
<g id="surface263003814">
<path style=" stroke:none;fill-rule:nonzero;fill:rgb(80.000001%,80.000001%,80.000001%);fill-opacity:1;" d="M 13 26 C 5.820312 26 0 20.179688 0 13 C 0 5.820312 5.820312 0 13 0 C 20.179688 0 26 5.820312 26 13 C 26 20.179688 20.179688 26 13 26 Z M 13 26 "/>
<path style=" stroke:none;fill-rule:nonzero;fill:rgb(100%,100%,100%);fill-opacity:1;" d="M 10.054688 5.851562 C 7.746094 5.851562 5.851562 7.746094 5.851562 10.054688 L 5.851562 15.945312 C 5.851562 18.253906 7.746094 20.148438 10.054688 20.148438 L 15.945312 20.148438 C 18.253906 20.148438 20.148438 18.253906 20.148438 15.945312 L 20.148438 10.054688 C 20.148438 7.746094 18.253906 5.851562 15.945312 5.851562 Z M 10.054688 7.148438 L 15.945312 7.148438 C 17.550781 7.148438 18.851562 8.449219 18.851562 10.054688 L 18.851562 15.945312 C 18.851562 17.550781 17.550781 18.851562 15.945312 18.851562 L 10.054688 18.851562 C 8.449219 18.851562 7.148438 17.550781 7.148438 15.945312 L 7.148438 10.054688 C 7.148438 8.449219 8.449219 7.148438 10.054688 7.148438 Z M 16.839844 8.570312 C 16.511719 8.570312 16.25 8.832031 16.25 9.160156 C 16.25 9.488281 16.511719 9.75 16.839844 9.75 C 17.167969 9.75 17.429688 9.488281 17.429688 9.160156 C 17.429688 8.832031 17.167969 8.570312 16.839844 8.570312 Z M 13 9.101562 C 10.855469 9.101562 9.101562 10.855469 9.101562 13 C 9.101562 15.144531 10.855469 16.898438 13 16.898438 C 15.144531 16.898438 16.898438 15.144531 16.898438 13 C 16.898438 10.855469 15.144531 9.101562 13 9.101562 Z M 13 10.398438 C 14.445312 10.398438 15.601562 11.554688 15.601562 13 C 15.601562 14.445312 14.445312 15.601562 13 15.601562 C 11.554688 15.601562 10.398438 14.445312 10.398438 13 C 10.398438 11.554688 11.554688 10.398438 13 10.398438 Z M 13 10.398438 "/>
</g>
</svg>
